# File created by Blade
# Date/Time:  Wed Jan 21 15:23:43 2015
# Frame Rate: 120.000 fps
#------------------------------------------------------
:FULLY-SPECIFIED
:DEGREES
1107
root 17.577989 32.709939 -19.071705 -166.566078 -1.986340 -185.539503
Spine 4.956182 3.658744 -15.677405
Head -16.309894 -6.084294 9.536834
LeftShoulder -1.778303 -26.124086 3.126899
LeftArm -17.779818 45.438699 -84.521561
LeftForeArm 19.693390 -0.000000 35.119083
LeftHand 2.256757 -0.000000 -5.203839
LeftHandThumb1 -26.253704 0.000000 33.147579
RightShoulder -4.019433 -9.895595 9.033193
RightArm 20.181751 -31.808489 63.284809
RightForeArm -27.089249 -0.000000 25.781530
RightHand 4.390441 -0.000000 7.280316
RightHandThumb1 -24.326973 -0.000000 -32.862282
LeftUpLeg -31.631272 15.769513 1.095473
LeftLeg 36.790249 -0.000000 -0.000000
LeftFoot -34.476901 16.552972 -16.016253
LeftToeBase 29.915951 -0.000000 -0.000000
RightUpLeg -20.066311 -30.811406 -22.519906
RightLeg 11.787647 -0.000000 -0.000000
RightFoot -12.075812 -26.857719 17.978276
RightToeBase 19.620805 -0.000000 -0.000000
1108
root 17.806602 32.771652 -19.086558 -166.633432 -2.066618 -185.324737
Spine 4.947955 3.626162 -15.468875
Head -16.175974 -6.034617 9.530093
LeftShoulder -1.763360 -26.157308 3.065110
LeftArm -17.987631 45.343110 -84.553853
LeftForeArm 19.676232 0.000000 34.926158
LeftHand 2.304488 0.000000 -5.464228
LeftHandThumb1 -26.253704 0.000000 33.147579
RightShoulder -4.075474 -9.968961 9.098606
RightArm 20.282314 -31.815104 63.097744
RightForeArm -27.084681 -0.000000 25.986910
RightHand 4.330252 0.000000 7.233479
RightHandThumb1 -24.326973 -0.000000 -32.862282
LeftUpLeg -31.058369 15.697411 1.736144
LeftLeg 35.798695 -0.000000 -0.000000
LeftFoot -33.913172 16.671490 -16.158361
LeftToeBase 29.946291 -0.000000 -0.000000
RightUpLeg -20.330472 -30.791110 -21.972141
RightLeg 12.391058 -0.000000 -0.000000
RightFoot -12.388956 -26.783965 18.653997
RightToeBase 19.815255 -0.000000 -0.000000
1109
root 18.042126 32.829812 -19.098819 -166.708812 -2.122873 -185.040387
Spine 4.952026 3.599758 -15.181667
Head -16.057401 -5.976709 9.482502
LeftShoulder -1.834715 -26.095820 3.025753
LeftArm -17.992901 45.269822 -84.507110
LeftForeArm 19.405485 0.000000 34.631062
LeftHand 2.411533 -0.000000 -5.700958
LeftHandThumb1 -26.253704 0.000000 33.147579
RightShoulder -4.085412 -9.964118 9.104783
RightArm 20.279242 -31.775782 63.017310
RightForeArm -27.232050 -0.000000 26.199594
RightHand 4.245002 0.000000 7.049294
RightHandThumb1 -24.326973 -0.000000 -32.862282
LeftUpLeg -30.495725 15.676610 2.450980
LeftLeg 34.841414 -0.000000 -0.000000
LeftFoot -33.375146 16.773713 -16.293260
LeftToeBase 30.099748 -0.000000 -0.000000
RightUpLeg -20.645059 -30.753866 -21.328731
RightLeg 13.041431 -0.000000 -0.000000
RightFoot -12.695366 -26.686671 19.024139
RightToeBase 21.085247 -0.000000 -0.000000
1110
root 18.275076 32.887474 -19.109300 -166.772200 -2.175685 -184.799252
Spine 4.954975 3.532525 -14.935635
Head -15.950853 -5.900027 9.427490
LeftShoulder -1.869917 -26.158955 2.963482
LeftArm -18.242439 45.124672 -84.552223
LeftForeArm 19.310443 -0.000000 34.468330
LeftHand 2.244356 -0.000000 -5.408507
LeftHandThumb1 -26.253704 0.000000 33.147579
RightShoulder -4.072312 -10.014553 9.084146
RightArm 20.339396 -31.664614 62.944970
RightForeArm -27.319513 0.000000 26.363549
RightHand 4.279851 -0.000000 7.111267
RightHandThumb1 -24.326973 -0.000000 -32.862282
LeftUpLeg -29.915490 15.590393 3.126882
LeftLeg 33.835738 -0.000000 -0.000000
LeftFoot -32.798759 16.898932 -16.466849
LeftToeBase 30.074709 -0.000000 -0.000000
RightUpLeg -20.982237 -30.738989 -20.737103
RightLeg 13.717941 -0.000000 -0.000000
RightFoot -13.021683 -26.493642 19.599386
RightToeBase 21.890096 -0.000000 -0.000000
1111
root 18.512802 32.941460 -19.125374 -166.847564 -2.222212 -184.537500
Spine 4.959419 3.492038 -14.670752
Head -15.855945 -5.823951 9.393770
LeftShoulder -1.930343 -26.131343 2.926350
LeftArm -18.362995 45.017101 -84.554842
LeftForeArm 19.156385 -0.000000 34.256094
LeftHand 2.275843 -0.000000 -6.066128
LeftHandThumb1 -26.253704 0.000000 33.147579
RightShoulder -4.075265 -9.960596 9.068354
RightArm 20.270219 -31.631356 62.929466
RightForeArm -27.481983 -0.000000 26.559088
RightHand 4.288874 -0.000000 7.145328
RightHandThumb1 -24.326973 -0.000000 -32.862282
LeftUpLeg -29.323951 15.594631 3.817650
LeftLeg 32.841245 -0.000000 -0.000000
LeftFoot -32.205731 16.956774 -16.651267
LeftToeBase 30.090370 -0.000000 -0.000000
RightUpLeg -21.334707 -30.819267 -20.093703
RightLeg 14.435783 -0.000000 -0.000000
RightFoot -13.334426 -26.179278 20.066591
RightToeBase 22.566316 -0.000000 -0.000000
1112
root 18.752284 32.991060 -19.142532 -166.949350 -2.262595 -184.269638
Spine 4.998397 3.452329 -14.393342
Head -15.753174 -5.731843 9.348600
LeftShoulder -2.024624 -26.094622 2.886991
LeftArm -18.407743 44.940375 -84.513721
LeftForeArm 19.004065 -0.000000 33.996348
LeftHand 2.337318 0.000000 -6.176289
LeftHandThumb1 -26.253704 0.000000 33.147579
RightShoulder -4.089564 -9.963117 9.044849
RightArm 20.277138 -31.602130 62.851796
RightForeArm -27.680314 -0.000000 26.802631
RightHand 4.238410 -0.000000 7.097617
RightHandThumb1 -24.326973 -0.000000 -32.862282
LeftUpLeg -28.703672 15.623306 4.517481
LeftLeg 31.847031 -0.000000 -0.000000
LeftFoot -31.631273 16.992369 -16.836294
LeftToeBase 30.095447 -0.000000 -0.000000
RightUpLeg -21.669215 -30.907676 -19.455827
RightLeg 15.168974 -0.000000 -0.000000
RightFoot -13.654694 -25.848812 20.423784
RightToeBase 23.620670 -0.000000 -0.000000
1113
root 18.995045 33.037662 -19.155263 -167.016774 -2.310046 -183.968696
Spine 5.007853 3.404201 -14.056426
Head -15.676392 -5.640604 9.254861
LeftShoulder -2.081190 -26.070879 2.818579
LeftArm -18.535824 44.848553 -84.516388
LeftForeArm 18.812986 -0.000000 33.803906
LeftHand 2.306459 -0.000000 -6.231461
LeftHandThumb1 -26.253704 0.000000 33.147579
RightShoulder -4.129725 -9.975774 8.994949
RightArm 20.315577 -31.607660 62.753299
RightForeArm -27.773564 -0.000000 27.061175
RightHand 4.202579 -0.000000 7.089944
RightHandThumb1 -24.326973 -0.000000 -32.862282
LeftUpLeg -28.118109 15.631428 5.256461
LeftLeg 30.841524 -0.000000 -0.000000
LeftFoot -31.045422 17.040156 -16.975936
LeftToeBase 30.202379 -0.000000 -0.000000
RightUpLeg -22.064147 -31.027946 -18.747085
RightLeg 15.936645 -0.000000 -0.000000
RightFoot -14.042135 -25.510619 20.697656
RightToeBase 24.862962 -0.000000 -0.000000
